<?xml version="1.0" encoding="UTF-8" standalone="no"?>
<!-- Created with Inkscape (http://www.inkscape.org/) -->

<svg
   width="423.66983"
   height="575.04016"
   viewBox="0 0 423.66983 575.04016"
   version="1.1"
   id="svg5"
   inkscape:version="1.1.1 (3bf5ae0d25, 2021-09-20)"
   sodipodi:docname="leanded-over-stick-figure.svg"
   xmlns:inkscape="http://www.inkscape.org/namespaces/inkscape"
   xmlns:sodipodi="http://sodipodi.sourceforge.net/DTD/sodipodi-0.dtd"
   xmlns="http://www.w3.org/2000/svg"
   xmlns:svg="http://www.w3.org/2000/svg">
  <sodipodi:namedview
     id="namedview7"
     pagecolor="#ffffff"
     bordercolor="#666666"
     borderopacity="1.0"
     inkscape:pageshadow="2"
     inkscape:pageopacity="0.0"
     inkscape:pagecheckerboard="0"
     inkscape:document-units="px"
     showgrid="false"
     inkscape:zoom="0.56481481"
     inkscape:cx="595.77049"
     inkscape:cy="316.03279"
     inkscape:window-width="1600"
     inkscape:window-height="837"
     inkscape:window-x="-8"
     inkscape:window-y="-8"
     inkscape:window-maximized="1"
     inkscape:current-layer="layer1" />
  <defs
     id="defs2">
    <inkscape:path-effect
       effect="simplify"
       id="path-effect5023"
       is_visible="true"
       lpeversion="1"
       steps="1"
       threshold="0.00283019"
       smooth_angles="360"
       helper_size="0"
       simplify_individual_paths="false"
       simplify_just_coalesce="false" />
    <inkscape:path-effect
       effect="simplify"
       id="path-effect5019"
       is_visible="true"
       lpeversion="1"
       steps="1"
       threshold="0.00283019"
       smooth_angles="360"
       helper_size="0"
       simplify_individual_paths="false"
       simplify_just_coalesce="false" />
    <inkscape:path-effect
       effect="simplify"
       id="path-effect5015"
       is_visible="true"
       lpeversion="1"
       steps="1"
       threshold="0.00283019"
       smooth_angles="360"
       helper_size="0"
       simplify_individual_paths="false"
       simplify_just_coalesce="false" />
    <inkscape:path-effect
       effect="simplify"
       id="path-effect5011"
       is_visible="true"
       lpeversion="1"
       steps="1"
       threshold="0.00283019"
       smooth_angles="360"
       helper_size="0"
       simplify_individual_paths="false"
       simplify_just_coalesce="false" />
    <inkscape:path-effect
       effect="simplify"
       id="path-effect4894"
       is_visible="true"
       lpeversion="1"
       steps="1"
       threshold="0.00283019"
       smooth_angles="360"
       helper_size="0"
       simplify_individual_paths="false"
       simplify_just_coalesce="false" />
    <inkscape:path-effect
       effect="simplify"
       id="path-effect4890"
       is_visible="true"
       lpeversion="1"
       steps="1"
       threshold="0.00283019"
       smooth_angles="360"
       helper_size="0"
       simplify_individual_paths="false"
       simplify_just_coalesce="false" />
    <inkscape:path-effect
       effect="simplify"
       id="path-effect4886"
       is_visible="true"
       lpeversion="1"
       steps="1"
       threshold="0.000680628"
       smooth_angles="360"
       helper_size="0"
       simplify_individual_paths="false"
       simplify_just_coalesce="false" />
    <inkscape:path-effect
       effect="skeletal"
       id="path-effect4689"
       is_visible="true"
       lpeversion="1"
       pattern="M 0,18.867925 C 0,8.4528302 8.4528302,0 18.867925,0 c 10.415094,0 18.867924,8.4528302 18.867924,18.867925 0,10.415094 -8.45283,18.867924 -18.867924,18.867924 C 8.4528302,37.735849 0,29.283019 0,18.867925 Z"
       copytype="single_stretched"
       prop_scale="1"
       scale_y_rel="false"
       spacing="0"
       normal_offset="0"
       tang_offset="0"
       prop_units="false"
       vertical_pattern="false"
       hide_knot="false"
       fuse_tolerance="0" />
    <inkscape:path-effect
       effect="simplify"
       id="path-effect4687"
       is_visible="true"
       lpeversion="1"
       steps="1"
       threshold="0.000680628"
       smooth_angles="360"
       helper_size="0"
       simplify_individual_paths="false"
       simplify_just_coalesce="false" />
    <inkscape:path-effect
       effect="skeletal"
       id="path-effect4490"
       is_visible="true"
       lpeversion="1"
       pattern="m 1012.5473,-27.164862 c 0,-10.415095 -0.5638,-18.867925 -1.2585,-18.867925 -0.6947,0 -1.2585,8.45283 -1.2585,18.867925 0,10.415094 0.5638,18.8679241 1.2585,18.8679241 0.6947,0 1.2585,-8.4528301 1.2585,-18.8679241 z"
       copytype="single_stretched"
       prop_scale="1"
       scale_y_rel="false"
       spacing="0"
       normal_offset="0"
       tang_offset="0"
       prop_units="false"
       vertical_pattern="false"
       hide_knot="false"
       fuse_tolerance="0" />
    <inkscape:path-effect
       effect="simplify"
       id="path-effect4488"
       is_visible="true"
       lpeversion="1"
       steps="1"
       threshold="0.01"
       smooth_angles="360"
       helper_size="0"
       simplify_individual_paths="false"
       simplify_just_coalesce="false" />
    <inkscape:path-effect
       effect="skeletal"
       id="path-effect2599"
       is_visible="true"
       lpeversion="1"
       pattern="m 924.05112,-86.218075 c 1.10105,-11.73598 12.08388,-20.314295 24.51527,-19.148015 12.43138,1.16628 21.62702,11.637685 20.52598,23.373655 -1.10104,11.73599 -12.08387,20.31428 -24.51525,19.148 -12.4314,-1.16627 -21.62704,-11.63766 -20.526,-23.37364 z"
       copytype="single_stretched"
       prop_scale="1"
       scale_y_rel="false"
       spacing="0"
       normal_offset="0"
       tang_offset="0"
       prop_units="false"
       vertical_pattern="false"
       hide_knot="false"
       fuse_tolerance="0" />
    <inkscape:path-effect
       effect="simplify"
       id="path-effect2595"
       is_visible="true"
       lpeversion="1"
       steps="1"
       threshold="0.01"
       smooth_angles="360"
       helper_size="0"
       simplify_individual_paths="false"
       simplify_just_coalesce="false" />
    <inkscape:path-effect
       effect="skeletal"
       id="path-effect2466"
       is_visible="true"
       lpeversion="1"
       pattern="m 21.245949,-190.23887 c 0,-13.09946 8.45283,-23.7309 18.86793,-23.7309 10.41509,0 18.86792,10.63144 18.86792,23.7309 0,13.09945 -8.45283,23.7309 -18.86792,23.7309 -10.4151,0 -18.86793,-10.63145 -18.86793,-23.7309 z"
       copytype="single_stretched"
       prop_scale="1"
       scale_y_rel="false"
       spacing="0"
       normal_offset="0"
       tang_offset="0"
       prop_units="false"
       vertical_pattern="false"
       hide_knot="false"
       fuse_tolerance="0" />
    <inkscape:path-effect
       effect="simplify"
       id="path-effect2464"
       is_visible="true"
       lpeversion="1"
       steps="1"
       threshold="0.01"
       smooth_angles="360"
       helper_size="0"
       simplify_individual_paths="false"
       simplify_just_coalesce="false" />
    <inkscape:path-effect
       effect="skeletal"
       id="path-effect2267"
       is_visible="true"
       lpeversion="1"
       pattern="m -53.114754,-142.24683 c 0,-10.41509 8.45283,-18.86792 18.867925,-18.86792 10.415094,0 18.867924,8.45283 18.867924,18.86792 0,10.4151 -8.45283,18.86793 -18.867924,18.86793 -10.415095,0 -18.867925,-8.45283 -18.867925,-18.86793 z"
       copytype="single_stretched"
       prop_scale="1"
       scale_y_rel="false"
       spacing="0"
       normal_offset="0"
       tang_offset="0"
       prop_units="false"
       vertical_pattern="false"
       hide_knot="false"
       fuse_tolerance="0" />
    <inkscape:path-effect
       effect="simplify"
       id="path-effect2265"
       is_visible="true"
       lpeversion="1"
       steps="1"
       threshold="0.01"
       smooth_angles="360"
       helper_size="0"
       simplify_individual_paths="false"
       simplify_just_coalesce="false" />
    <inkscape:path-effect
       effect="skeletal"
       id="path-effect2261"
       is_visible="true"
       lpeversion="1"
       pattern="m -225.68678,-166.98295 c 0,-12.61097 11.33405,-22.84596 25.29923,-22.84596 13.96517,0 25.29922,10.23499 25.29922,22.84596 0,12.61097 -11.33405,22.84596 -25.29922,22.84596 -13.96518,0 -25.29923,-10.23499 -25.29923,-22.84596 z"
       copytype="single_stretched"
       prop_scale="1"
       scale_y_rel="false"
       spacing="0"
       normal_offset="0"
       tang_offset="0"
       prop_units="false"
       vertical_pattern="false"
       hide_knot="false"
       fuse_tolerance="0" />
    <inkscape:path-effect
       effect="simplify"
       id="path-effect2259"
       is_visible="true"
       lpeversion="1"
       steps="1"
       threshold="0.01"
       smooth_angles="360"
       helper_size="0"
       simplify_individual_paths="false"
       simplify_just_coalesce="false" />
    <inkscape:path-effect
       effect="skeletal"
       id="path-effect1265"
       is_visible="true"
       lpeversion="1"
       pattern="M 0,-91.132075 C 0,-101.54717 8.4528302,-110 18.867925,-110 c 10.415094,0 18.867924,8.45283 18.867924,18.867925 0,10.415094 -8.45283,18.867924 -18.867924,18.867924 C 8.4528302,-72.264151 0,-80.716981 0,-91.132075 Z"
       copytype="single_stretched"
       prop_scale="1"
       scale_y_rel="false"
       spacing="0"
       normal_offset="0"
       tang_offset="0"
       prop_units="false"
       vertical_pattern="false"
       hide_knot="false"
       fuse_tolerance="0" />
    <inkscape:path-effect
       effect="simplify"
       id="path-effect1263"
       is_visible="true"
       lpeversion="1"
       steps="1"
       threshold="0.01"
       smooth_angles="360"
       helper_size="0"
       simplify_individual_paths="false"
       simplify_just_coalesce="false" />
    <inkscape:path-effect
       effect="skeletal"
       id="path-effect1259"
       is_visible="true"
       lpeversion="1"
       pattern="M 0,-91.132075 C 0,-101.54717 8.4528302,-110 18.867925,-110 c 10.415094,0 18.867924,8.45283 18.867924,18.867925 0,10.415094 -8.45283,18.867924 -18.867924,18.867924 C 8.4528302,-72.264151 0,-80.716981 0,-91.132075 Z"
       copytype="single_stretched"
       prop_scale="1"
       scale_y_rel="false"
       spacing="0"
       normal_offset="0"
       tang_offset="0"
       prop_units="false"
       vertical_pattern="false"
       hide_knot="false"
       fuse_tolerance="0" />
    <inkscape:path-effect
       effect="simplify"
       id="path-effect1257"
       is_visible="true"
       lpeversion="1"
       steps="1"
       threshold="0.01"
       smooth_angles="360"
       helper_size="0"
       simplify_individual_paths="false"
       simplify_just_coalesce="false" />
    <inkscape:path-effect
       effect="skeletal"
       id="path-effect1083"
       is_visible="true"
       lpeversion="1"
       pattern="m 547.08197,-191.8206 c 0,-10.41509 8.45283,-18.86792 18.86792,-18.86792 10.4151,0 18.86793,8.45283 18.86793,18.86792 0,10.41509 -8.45283,18.86792 -18.86793,18.86792 -10.41509,0 -18.86792,-8.45283 -18.86792,-18.86792 z"
       copytype="single_stretched"
       prop_scale="1"
       scale_y_rel="false"
       spacing="0"
       normal_offset="0"
       tang_offset="0"
       prop_units="false"
       vertical_pattern="false"
       hide_knot="false"
       fuse_tolerance="0" />
    <inkscape:path-effect
       effect="simplify"
       id="path-effect1081"
       is_visible="true"
       lpeversion="1"
       steps="1"
       threshold="0.01"
       smooth_angles="360"
       helper_size="0"
       simplify_individual_paths="false"
       simplify_just_coalesce="false" />
    <inkscape:path-effect
       effect="skeletal"
       id="path-effect1077"
       is_visible="true"
       lpeversion="1"
       pattern="m 959.60656,-85.591091 c 0,-10.415095 8.45283,-18.867929 18.86792,-18.867929 10.4151,0 18.86793,8.452834 18.86793,18.867929 0,10.415094 -8.45283,18.867924 -18.86793,18.867924 -10.41509,0 -18.86792,-8.45283 -18.86792,-18.867924 z"
       copytype="single_stretched"
       prop_scale="1"
       scale_y_rel="false"
       spacing="0"
       normal_offset="0"
       tang_offset="0"
       prop_units="false"
       vertical_pattern="false"
       hide_knot="false"
       fuse_tolerance="0" />
    <inkscape:path-effect
       effect="simplify"
       id="path-effect1075"
       is_visible="true"
       lpeversion="1"
       steps="1"
       threshold="0.01"
       smooth_angles="360"
       helper_size="0"
       simplify_individual_paths="false"
       simplify_just_coalesce="false" />
  </defs>
  <g
     inkscape:label="Layer 1"
     inkscape:groupmode="layer"
     id="layer1"
     transform="translate(-365.19985,-370.60574)">
    <path
       style="fill:#000000;stroke:none;stroke-width:1.12149px;stroke-linecap:butt;stroke-linejoin:miter;stroke-opacity:1"
       d="m 451.47541,569.86885 c 1.46263,4.16187 -3.20881,9.68761 -9.70645,17.49935 -6.48389,7.7952 -15.103,18.3353 -21.00953,31.91114 -6.03598,13.50788 -9.49365,30.75964 -7.85751,48.64522 -0.0216,-0.22699 0.24111,2.5385 0.2195,2.31152 2.21423,23.39913 3.72153,44.25126 1.47917,65.8765 0,0 0,10e-6 0,10e-6 -1.41919,13.58884 -4.44746,25.5349 -8.59883,35.56127 -9.33647,22.52828 -22.30374,30.26096 -27.11646,27.55688 -5.35111,-3.00658 -3.64266,-16.14047 -3.86823,-34.34889 -0.0888,-8.88741 -0.61179,-17.67973 -1.75283,-29.28938 0,0 0,0 0,0 -1.65366,-17.07383 -5.26761,-37.3038 -7.41268,-60.98135 -0.0742,-0.81953 -0.14591,-1.63939 -0.21484,-2.45972 -2.58823,-29.35971 6.58907,-55.59409 20.5083,-74.29234 14.05195,-18.66476 31.358,-27.76129 43.67724,-30.96083 12.64028,-3.28292 20.2974,-0.88714 21.65315,2.97062 z"
       id="path2462"
       inkscape:path-effect="#path-effect2464;#path-effect2466"
       inkscape:original-d="m 451.47541,569.86885 c -117.3755,52.3862 -24.3107,138.27753 -72.5901,229.36187" />
    <circle
       style="fill:#ffffff;stroke:#000000;stroke-width:12.2449;stroke-linecap:round;stroke-opacity:1"
       id="path846"
       cx="440.85245"
       cy="628.2951"
       r="59.90379" />
    <path
       style="fill:none;stroke:#000000;stroke-width:16.6;stroke-linecap:butt;stroke-linejoin:miter;stroke-miterlimit:4;stroke-dasharray:none;stroke-opacity:1"
       d="m 451.47541,569.86885 c 0,0 65.63104,-227.59072 235.47541,-185.90164 169.84437,41.68907 56.65574,516.98359 56.65574,516.98359"
       id="path925"
       sodipodi:nodetypes="czc" />
    <path
       style="fill:#000000;stroke:none;stroke-width:1px;stroke-linecap:butt;stroke-linejoin:miter;stroke-opacity:1"
       d="m 743.60656,900.9508 c -1.79332,0.47219 -3.86972,-0.93871 -6.59857,-3.06608 -2.65986,-2.07358 -6.25526,-5.07299 -10.70263,-7.20026 -4.37906,-2.28942 -8.88928,-3.63341 -15.94378,-5.63649 0,0 -10e-6,0 -10e-6,0 -5.67012,-1.52577 -12.3228,-2.88367 -20.11344,-4.92567 -6.44271,-1.61588 -14.19224,-3.9308 -22.36139,-7.94514 -2.84611,-1.03723 -5.64458,-1.72248 -7.286,-1.14084 -1.15414,0.41158 -2.22223,0.80244 -1.95841,1.04962 0.19691,-0.27525 0.1548,0.23355 0.19384,0.26825 -0.21622,0.29824 -0.0982,0.87815 0.23552,1.70662 0.45103,1.11977 1.33557,2.77166 2.23239,4.63116 7.5299,11.52806 15.33382,20.86199 24.14939,27.60059 0,0 10e-6,0 10e-6,0 4.73248,3.60259 9.12928,6.34894 13.50232,7.94183 4.71274,1.81601 9.65358,2.52676 14.07943,2.21786 0,0 1e-5,-1e-5 1e-5,-1e-5 4.19683,0.16305 9.0736,-2.18864 12.86099,-4.51174 9.42107,-5.99359 13.69045,-12.55746 17.71034,-10.98973 3.36441,1.31209 5.21944,10.28072 -2.91305,24.01101 -3.60464,6.10086 -10.13347,13.16122 -20.76718,17.30073 0,0 -10e-6,0 -10e-6,0 -8.18153,3.05759 -17.94002,4.34898 -28.26356,2.58594 -8.91034,-1.57404 -17.57287,-4.90281 -25.47963,-9.76007 10e-6,0 -10e-6,-10e-6 -10e-6,-10e-6 -14.22433,-8.68139 -26.59808,-20.93933 -36.34537,-35.77594 -3.03028,-4.1263 -5.50389,-9.19815 -7.0156,-15.09603 -1.09193,-4.2601 -1.66465,-8.885 -1.61167,-13.80361 0.54588,-9.78675 4.79609,-18.68337 11.93699,-25.47887 7.62187,-6.64987 16.37502,-9.88935 24.86681,-10.16439 10.56564,-0.28404 19.72349,2.63214 26.86503,7.22106 4.31575,3.0045 10.20037,5.67511 15.91373,8.36168 7.16193,3.28897 13.57192,6.18209 20.27027,10.07976 0,0 10e-6,0 10e-6,0 7.7858,4.41446 14.12939,9.75536 18.72226,15.64626 11.06272,14.45541 5.96161,24.30887 3.82097,24.87251 z"
       id="path1255"
       inkscape:path-effect="#path-effect1257;#path-effect1259"
       inkscape:original-d="m 743.60656,900.9508 c -6.51954,-26.75453 -35.1782,-33.56211 -56.65574,-40.72129 -120.69936,-40.23312 17.568,138.44069 56.65574,40.72129" />
    <path
       style="fill:#000000;stroke:none;stroke-width:1px;stroke-linecap:butt;stroke-linejoin:miter;stroke-opacity:1"
       d="m 642.68852,798.2623 c -1.29816,2.50119 -10.46385,-0.38419 -24.7673,0.46411 0,10e-6 0,0 0,0 -5.71619,0.32641 -12.29868,1.39006 -19.0126,3.96479 -5.06959,1.94259 -10.2538,4.73732 -14.93631,8.55399 -3.8207,3.13557 -7.37788,6.92522 -9.91306,11.22129 -2.11116,3.63387 -3.70602,7.60367 -4.02415,11.35535 -0.33784,3.32074 0.12678,6.89123 1.4654,9.85329 1.30752,3.39782 4.22118,6.74757 7.89971,9.99815 4.84265,4.23763 11.37784,7.44028 19.04109,10.46019 8.94851,3.08827 17.96417,5.43908 25.34578,4.16317 5.06477,-0.7548 10.2363,-3.01087 12.80807,-6.41319 1.70512,-1.85579 3.14379,-4.46612 4.41581,-7.47541 1.49593,-3.56726 2.40383,-7.81469 3.03293,-12.50964 0.16645,-1.20631 0.30009,-2.42645 0.40288,-3.6602 1.00048,-12.00821 -0.95893,-25.0753 -3.58232,-38.03012 -1.99372,-9.22674 -2.65811,-18.49618 -2.15124,-27.51494 0.52633,-8.92623 2.0664,-17.36305 4.18588,-25.18414 4.55751,-16.65585 11.39563,-31.86322 16.83903,-44.355 0,-10e-6 0,-10e-6 0,-2e-5 6.7814,-15.88579 11.99053,-28.60696 15.06959,-41.85826 4.3059,-17.99267 3.9503,-34.54041 2.10168,-47.74464 -2.08418,-13.3467 -2.52281,-23.15204 -1.59312,-30.90422 0.87715,-7.31414 2.80922,-11.00802 4.55258,-11.00752 1.84387,5.4e-4 3.39865,3.64048 5.72381,9.8972 2.33672,6.28781 5.74565,15.21975 10.28015,26.96746 5.55445,14.62382 9.44553,34.46951 6.85765,57.48475 -1.91783,16.41275 -6.39376,32.19226 -12.25903,49.03622 -1e-5,1e-5 -1e-5,1e-5 -1e-5,2e-5 -4.54172,13.35205 -10.13531,27.96797 -12.88321,41.00963 -1.30675,6.11896 -2.20441,12.24955 -2.2944,18.17605 -0.11342,5.93191 0.4894,11.94844 1.9042,17.76463 3.67255,14.8284 6.07607,31.50853 4.79723,49.14981 -0.1309,1.80585 -0.29995,3.61576 -0.509,5.42917 -0.8612,7.28987 -2.67398,14.78237 -5.70549,22.19313 -2.62041,6.42898 -6.43398,12.62823 -11.46689,18.21861 -10.31446,10.8372 -23.56167,16.70242 -36.8785,17.78616 -16.22212,1.08302 -30.67457,-2.72587 -42.38289,-8.15988 -10.16991,-4.33579 -19.92848,-10.3893 -28.3691,-18.51654 -6.82092,-6.52316 -12.11255,-14.81131 -15.15447,-24.23144 -2.64813,-8.78807 -2.73446,-17.67104 -0.81855,-25.79536 2.12915,-8.67503 6.10072,-16.01728 10.87635,-21.87853 5.56803,-6.87731 12.05534,-12.04596 18.58613,-15.76408 7.97032,-4.56203 16.0685,-7.1465 23.57579,-8.34905 9.97212,-1.59895 18.87511,-0.76927 25.92662,0.97788 0,0 10e-6,0 10e-6,0 17.77822,4.43452 24.31143,12.72594 23.01327,15.22713 z"
       id="path1261"
       inkscape:path-effect="#path-effect1263;#path-effect1265"
       inkscape:original-d="M 642.68852,798.2623 C 476.97257,771.06612 568.04084,942.964 669.2459,862 c 44.74608,-35.79686 -23.19349,-53.99976 -15.93442,-90.29508 6.6525,-33.26254 37.54676,-57.45027 42.4918,-92.06558 5.61491,-39.3044 -15.93443,-72.54735 -15.93443,-108" />
    <path
       style="fill:none;stroke:#000000;stroke-width:0;stroke-linecap:butt;stroke-linejoin:miter;stroke-miterlimit:4;stroke-dasharray:none;stroke-opacity:1"
       d="m 430.22951,513.21311 21.2459,15.93443 v 0"
       id="path1380" />
    <path
       style="fill:#000000;stroke:none;stroke-width:1.27419px;stroke-linecap:butt;stroke-linejoin:miter;stroke-opacity:1"
       d="m 605.20612,524.04803 c 3.89412,4.54686 -4.90643,14.69556 -12.54916,33.22249 -3.04078,7.23749 -5.63687,15.59125 -7.33189,25.46219 -1.65835,9.37316 -2.30085,18.9622 -2.97268,31.12729 -0.66744,12.99998 -1.03442,27.2417 -1.85811,42.663 -0.9519,15.92218 -4.33385,32.00885 -10.13972,47.71055 -1.92499,5.20606 -4.07328,10.25257 -6.41016,15.1245 -9.6525,20.06971 -21.84599,37.181 -33.70824,51.35769 -14.11223,16.93136 -29.30485,31.88904 -40.9708,42.79924 0,0 -10e-6,10e-6 -10e-6,10e-6 -12.32803,11.56271 -24.14153,21.7192 -31.60633,27.30813 -8.02755,6.01025 -13.59052,8.7862 -16.25752,6.93489 -2.63435,-1.82865 -2.09485,-8.14727 1.77205,-17.89081 3.99559,-10.06783 10.91634,-22.37514 20.94347,-37.54561 0,0 10e-6,-10e-6 10e-6,-10e-6 9.27933,-14.07461 20.85123,-29.79564 32.39535,-46.99724 9.2941,-13.91312 19.00766,-29.2971 26.14764,-45.22313 1.72449,-3.8351 3.34028,-7.75439 4.81901,-11.74172 4.45958,-12.02509 7.38859,-23.89814 8.67969,-35.45567 1.70208,-15.39154 3.3661,-29.46473 5.9449,-43.7918 2.2788,-12.93725 5.31395,-24.95707 9.81225,-36.3312 4.97999,-12.56031 11.64536,-22.69998 18.59886,-30.37234 17.18959,-18.68238 31.45506,-22.13926 34.69139,-18.36045 z"
       id="path2257"
       inkscape:path-effect="#path-effect2259;#path-effect2261"
       inkscape:original-d="m 605.20612,524.04803 c -9.6364,25.28711 -42.9794,32.60422 -54.6015,53.59437 -14.4319,26.06489 12.3392,59.62651 7.1219,87.89475 -13.6758,74.09807 -74.726,123.18994 -116.325,182.22083" />
  </g>
</svg>
