<?xml version="1.0" encoding="UTF-8" standalone="no"?>
<!-- Created with Inkscape (http://www.inkscape.org/) -->

<svg
   width="162.946mm"
   height="104.6749mm"
   viewBox="0 0 162.946 104.6749"
   version="1.1"
   id="svg23507"
   inkscape:version="1.1.1 (3bf5ae0d25, 2021-09-20)"
   sodipodi:docname="police-car.svg"
   xmlns:inkscape="http://www.inkscape.org/namespaces/inkscape"
   xmlns:sodipodi="http://sodipodi.sourceforge.net/DTD/sodipodi-0.dtd"
   xmlns="http://www.w3.org/2000/svg"
   xmlns:svg="http://www.w3.org/2000/svg">
  <sodipodi:namedview
     id="namedview23509"
     pagecolor="#ffffff"
     bordercolor="#666666"
     borderopacity="1.0"
     inkscape:pageshadow="2"
     inkscape:pageopacity="0.0"
     inkscape:pagecheckerboard="0"
     inkscape:document-units="mm"
     showgrid="false"
     inkscape:zoom="0.54342031"
     inkscape:cx="341.3564"
     inkscape:cy="-11.961275"
     inkscape:window-width="1600"
     inkscape:window-height="837"
     inkscape:window-x="-8"
     inkscape:window-y="-8"
     inkscape:window-maximized="1"
     inkscape:current-layer="layer1" />
  <defs
     id="defs23504">
    <inkscape:path-effect
       effect="skeletal"
       id="path-effect24209"
       is_visible="true"
       lpeversion="1"
       pattern="m -46.437308,86.567976 c -1.551288,-2.277535 -0.961871,-5.384987 1.315665,-6.936276 2.277535,-1.551288 5.384986,-0.961871 6.936275,1.315664 1.551289,2.277535 0.961871,5.384987 -1.315663,6.936275 -2.277536,1.55129 -5.384988,0.961872 -6.936277,-1.315663 z"
       copytype="single_stretched"
       prop_scale="1"
       scale_y_rel="false"
       spacing="0"
       normal_offset="0"
       tang_offset="0"
       prop_units="false"
       vertical_pattern="false"
       hide_knot="false"
       fuse_tolerance="0" />
    <inkscape:path-effect
       effect="simplify"
       id="path-effect24205"
       is_visible="true"
       lpeversion="1"
       steps="1"
       threshold="0.00152542"
       smooth_angles="360"
       helper_size="0"
       simplify_individual_paths="false"
       simplify_just_coalesce="false" />
    <inkscape:path-effect
       effect="skeletal"
       id="path-effect24028"
       is_visible="true"
       lpeversion="1"
       pattern="M 0,4.9921382 C 0,2.2364779 2.2364779,0 4.9921382,0 c 2.7556604,0 4.9921383,2.2364779 4.9921383,4.9921382 0,2.7556604 -2.2364779,4.9921383 -4.9921383,4.9921383 C 2.2364779,9.9842765 0,7.7477986 0,4.9921382 Z"
       copytype="single_stretched"
       prop_scale="1"
       scale_y_rel="false"
       spacing="0"
       normal_offset="0"
       tang_offset="0"
       prop_units="false"
       vertical_pattern="false"
       hide_knot="false"
       fuse_tolerance="0" />
    <inkscape:path-effect
       effect="simplify"
       id="path-effect24026"
       is_visible="true"
       lpeversion="1"
       steps="1"
       threshold="0.00152542"
       smooth_angles="360"
       helper_size="0"
       simplify_individual_paths="false"
       simplify_just_coalesce="false" />
    <inkscape:path-effect
       effect="skeletal"
       id="path-effect23887"
       is_visible="true"
       lpeversion="1"
       pattern="M 0,4.9921382 C 0,2.2364779 2.2364779,0 4.9921382,0 c 2.7556604,0 4.9921383,2.2364779 4.9921383,4.9921382 0,2.7556604 -2.2364779,4.9921383 -4.9921383,4.9921383 C 2.2364779,9.9842765 0,7.7477986 0,4.9921382 Z"
       copytype="single_stretched"
       prop_scale="1"
       scale_y_rel="false"
       spacing="0"
       normal_offset="0"
       tang_offset="0"
       prop_units="false"
       vertical_pattern="false"
       hide_knot="false"
       fuse_tolerance="0" />
    <inkscape:path-effect
       effect="simplify"
       id="path-effect23885"
       is_visible="true"
       lpeversion="1"
       steps="1"
       threshold="0.00152542"
       smooth_angles="360"
       helper_size="0"
       simplify_individual_paths="false"
       simplify_just_coalesce="false" />
    <inkscape:path-effect
       effect="skeletal"
       id="path-effect23881"
       is_visible="true"
       lpeversion="1"
       pattern="M 0,4.9921382 C 0,2.2364779 2.2364779,0 4.9921382,0 c 2.7556604,0 4.9921383,2.2364779 4.9921383,4.9921382 0,2.7556604 -2.2364779,4.9921383 -4.9921383,4.9921383 C 2.2364779,9.9842765 0,7.7477986 0,4.9921382 Z"
       copytype="single_stretched"
       prop_scale="1"
       scale_y_rel="false"
       spacing="0"
       normal_offset="0"
       tang_offset="0"
       prop_units="false"
       vertical_pattern="false"
       hide_knot="false"
       fuse_tolerance="0" />
    <inkscape:path-effect
       effect="simplify"
       id="path-effect23879"
       is_visible="true"
       lpeversion="1"
       steps="1"
       threshold="0.00152542"
       smooth_angles="360"
       helper_size="0"
       simplify_individual_paths="false"
       simplify_just_coalesce="false" />
    <inkscape:path-effect
       effect="simplify"
       id="path-effect23716"
       is_visible="true"
       lpeversion="1"
       steps="1"
       threshold="0.00152542"
       smooth_angles="360"
       helper_size="0"
       simplify_individual_paths="false"
       simplify_just_coalesce="false" />
  </defs>
  <g
     inkscape:label="Layer 1"
     inkscape:groupmode="layer"
     id="layer1"
     transform="translate(-25.283418,-83.884653)">
    <path
       style="fill:#ff0000;stroke:#ff0000;stroke-width:0.264583px;stroke-linecap:butt;stroke-linejoin:miter;stroke-opacity:1"
       d="m 103.07682,101.71451 c 2.14262,2.59992 3.10908,4.11822 1.81978,4.91301 -0.88662,0.54655 -4.50185,0.86257 -8.98358,-2.2499 -0.866777,-0.56902 -1.784091,-1.37777 -2.604358,-2.50867 -0.673083,-0.92798 -1.270907,-2.060096 -1.711639,-3.419341 -0.595362,-2.519521 -0.234013,-5.08906 1.105744,-7.225253 1.606344,-2.514262 3.769672,-4.299799 6.046408,-5.319813 2.655245,-1.330455 5.712635,-2.023479 8.895735,-1.865404 2.09756,0.0054 4.47526,0.784565 6.6947,2.439919 1.95522,1.693338 2.90139,3.8552 2.96529,6.005494 0,0 0,2e-6 0,2e-6 -0.0349,2.907112 -0.95554,5.023189 -1.97571,6.442196 -0.94842,1.39894 -1.96492,2.49673 -2.91427,3.32335 -3.00194,2.61388 -4.82966,2.61242 -5.28112,1.33201 -0.59081,-1.67563 0.64994,-3.672667 1.48996,-7.766714 0.097,-0.661496 0.19692,-1.334931 0.18763,-1.802729 -0.006,-0.314996 -0.0601,-0.558208 -0.19707,-0.703471 -0.13391,0.112045 -0.18024,0.201825 0.0471,0.566879 0.002,-0.04622 -0.53238,0.06438 -1.35615,-0.03072 -1.33563,0.0012 -2.82921,0.435165 -4.32522,1.057058 -1.09081,0.563207 -1.96806,0.998701 -2.3264,1.501558 -0.12557,0.109339 -0.34797,0.264582 -0.42374,0.23339 -0.242321,0.424154 0.26689,1.356715 0.82778,2.386168 0.59215,0.957952 1.35011,1.879196 2.01911,2.690976 z"
       id="path24024-6"
       inkscape:path-effect="#path-effect24205;#path-effect24209"
       inkscape:original-d="m 105.3439,106.15804 c -30.669945,-14.844673 24.53052,-28.925425 2.14035,-2.04695" />
    <circle
       style="fill:#ffffff;fill-opacity:0.698795;stroke:#000000;stroke-width:4.165;stroke-linecap:round;stroke-miterlimit:4;stroke-dasharray:none;stroke-opacity:0.931727"
       id="path23740"
       cx="72.545898"
       cy="167.48853"
       r="18.988525" />
    <circle
       style="fill:#ffffff;fill-opacity:0.698795;stroke:#000000;stroke-width:4.165;stroke-linecap:round;stroke-miterlimit:4;stroke-dasharray:none;stroke-opacity:0.931727"
       id="path23740-9"
       cx="144.6049"
       cy="166.51476"
       r="18.988525" />
    <path
       style="fill:#000000;stroke:none;stroke-width:0.264583px;stroke-linecap:butt;stroke-linejoin:miter;stroke-opacity:1"
       d="m 52.583606,169.43606 c -0.08877,0.28692 -0.743077,0.30035 -1.823936,0.50185 -1.092124,0.20361 -2.632539,0.75205 -4.911078,1.37088 -2.113521,0.65148 -6.996932,2.43851 -11.612347,2.47177 -2.322887,-0.0377 -4.775408,-1.14023 -6.374781,-3.50264 -2.142769,-3.57673 -2.570649,-7.54238 -2.482928,-11.32689 -0.09794,-5.36923 -0.2903,-12.48071 0.48183,-19.3648 0.282623,-2.37405 1.622752,-4.55906 3.951738,-5.99878 3.687236,-2.06866 7.481721,-3.11454 11.137477,-3.96273 8.471445,-2.07524 17.540649,-3.78616 27.24002,-5.05617 0.366523,-0.0694 0.756511,-0.23765 0.904657,-0.43661 0,0 10e-7,-1e-5 10e-7,-1e-5 1.041238,-0.93076 1.963152,-2.43508 3.160823,-4.23311 1.10748,-1.78421 2.500617,-3.90165 4.533719,-5.97238 3.411048,-3.05067 7.230772,-4.45182 10.543407,-5.04014 4.487506,-0.9991 9.021235,-1.52978 13.576782,-1.76142 2.73801,-0.13921 5.44306,-0.1684 8.08821,-0.13392 4.25598,0.0469 8.41112,0.48872 12.4054,1.18327 4.37109,0.58986 9.28581,2.05025 13.59017,5.60213 2.50238,2.08692 5.13148,4.91183 6.86016,8.86719 0.61055,2.74063 0.49813,4.26359 0.20682,4.49984 0,0 0,0 0,0 0.34787,-0.0995 -0.15581,-0.82835 -1.18942,-2.56361 0,0 -1e-5,-2e-5 -1e-5,-2e-5 0.33374,0.85655 2.41688,0.71237 4.75206,0.76202 1.47916,-0.10781 3.27542,-0.57506 5.40983,-0.92599 2.18979,-0.42992 4.75692,-0.54037 7.52708,0.0736 2.51746,0.65836 4.57362,1.48578 6.36561,2.01884 2.01951,0.70972 5.70983,0.32245 9.9367,1.73856 2.85275,1.28507 4.54385,3.09304 5.50981,4.55353 3.94864,5.03178 6.43167,10.50069 7.45768,15.87823 1.06727,4.88567 -0.0445,9.73643 -2.79817,13.1492 -4.20486,4.5731 -9.92156,5.23278 -12.83498,5.29221 -4.39734,0.15567 -6.6547,-0.55493 -6.65497,-1.09205 -2.7e-4,-0.53712 2.31782,-0.88686 6.20545,-1.95389 2.5139,-0.73578 7.37584,-2.23449 9.22544,-5.40903 1.46353,-2.00116 1.50929,-5.10716 0.66683,-8.57096 -1.16811,-4.21568 -3.56855,-8.42636 -7.1124,-12.46663 -1.15357,-1.10474 -1.86354,-2.06119 -2.28509,-1.93291 -1.75725,-0.68934 -4.97498,-0.006 -9.50392,-1.05866 -2.34146,-0.5795 -4.38336,-1.30288 -6.18879,-1.67 -0.925,-0.26285 -2.24525,-0.0322 -3.90251,0.24387 -1.58946,0.33142 -3.63721,0.90601 -6.02288,1.22272 -3.30488,0.67063 -7.68229,0.26867 -11.84096,-2.68302 0,0 -3e-5,-4e-5 -3e-5,-4e-5 -2.01035,-2.5645 -2.61224,-4.74747 -2.05632,-6.12198 0,0 1e-5,-2e-5 1e-5,-2e-5 -0.0952,-1.28738 0.21626,-0.71526 0.31151,0.57211 -0.518,-1.61623 -2.32814,-3.14423 -4.46392,-5.15245 -1.71786,-1.76634 -4.98182,-2.34747 -8.80373,-3.13099 -3.58483,-0.57589 -7.22516,-0.94112 -10.85308,-0.95797 -2.50844,-0.007 -5.02351,0.0268 -7.51175,0.14722 -4.142145,0.20049 -8.115107,0.63606 -11.912934,1.48158 -2.703107,0.75104 -4.923212,1.23606 -5.830875,2.39378 -1.054127,0.93715 -2.029848,2.49481 -3.240861,4.25666 -1.191231,1.85577 -2.658566,3.94331 -4.746987,5.93639 0,0 -1.4e-5,1e-5 -1.4e-5,1e-5 -1.840634,1.65909 -4.05035,2.62692 -6.350276,2.87627 -9.428103,1.01616 -18.223287,2.37594 -26.491291,4.02757 -3.626868,0.77328 -6.648501,1.33529 -9.086278,2.64351 0.121772,-0.21988 0.03869,-0.0696 -0.02379,-0.0189 -1.052645,5.99722 -1.359165,13.07002 -1.726858,18.4174 -0.102937,3.70284 -0.434388,6.3191 0.719146,8.25876 0.190244,0.63448 1.071372,1.18826 1.839379,1.34261 2.983959,0.4757 8.523167,-0.43231 10.714073,-0.58631 2.4903,-0.23331 4.132685,-0.23082 5.593842,0.17183 1.291012,0.35576 1.799846,0.87966 1.722502,1.12966 z"
       id="path23877"
       inkscape:path-effect="#path-effect23879;#path-effect23881"
       inkscape:original-d="m 52.583606,169.43606 c -4.765114,-1.78319 -17.362823,4.54702 -21.42295,0.48689 -3.043047,-3.04305 -2.434426,-8.89664 -2.434426,-14.11967 0,-4.97417 -0.09715,-12.36757 1.460654,-17.04099 1.701993,-5.10597 34.30816,-8.33359 39.92459,-9.7377 3.641259,-0.91032 7.882797,-9.34345 10.22459,-11.68525 5.873239,-5.87324 29.367806,-5.89008 36.516396,-4.86885 11.57651,1.65379 14.54126,2.82337 20.44918,11.68525 0.9334,1.4001 -0.9632,3.09065 0.97377,4.38196 6.0425,4.02834 14.33591,-1.55087 20.44918,0.48689 4.65602,1.55201 9.54208,2.92131 14.60656,2.92131 4.39959,0 28.36175,34.08197 -7.79017,34.08197" />
    <path
       style="fill:#000000;stroke:none;stroke-width:0.264583px;stroke-linecap:butt;stroke-linejoin:miter;stroke-opacity:1"
       d="m 94.942622,165.0541 c 0.553401,-2.70687 7.496968,-3.40003 15.068848,-3.48721 1.18537,-0.0137 2.3509,-0.011 3.45258,0.008 0,0 0,0 0,0 6.00031,0.11461 11.09421,0.71193 11.66546,2.99252 0.54933,2.19306 -3.76407,5.58281 -10.97514,6.66244 0,0 0,0 0,0 -1.28503,0.19011 -2.6346,0.3 -4.02845,0.31594 -9.33949,0.10677 -15.716176,-3.88501 -15.183298,-6.49149 z"
       id="path23883"
       inkscape:path-effect="#path-effect23885;#path-effect23887"
       inkscape:original-d="m 94.942622,165.0541 c 11.193878,2.27513 20.745548,1.87345 30.186888,-0.48689" />
    <path
       style="fill:#000080;stroke:#000080;stroke-width:0.264583px;stroke-linecap:butt;stroke-linejoin:miter;stroke-opacity:1"
       d="m 114.41803,106.62787 c -1.27985,0.72831 -4.53732,-0.90716 -6.79088,-6.780865 0,0 0,-10e-7 0,-10e-7 -0.72058,-1.737883 -1.13459,-4.245581 -0.2301,-7.332924 0.86421,-2.273408 2.49278,-4.172421 4.74576,-5.232538 2.58774,-1.179549 5.299,-1.541292 7.76518,-1.164818 1.09563,0.120405 2.20806,0.345502 3.31715,0.686833 1.85369,0.57049 3.60241,1.436184 5.18104,2.563946 1.77312,1.152472 3.35061,3.056913 4.36556,5.549553 l 0,-10e-7 c 0.82007,2.388831 0.54224,4.719417 -0.48655,6.649715 0,0 0,0 0,0 l 0,0 c -1.52713,2.50502 -3.41077,3.81665 -4.99218,4.45857 l -10e-6,0 c -4.0745,1.80033 -7.45019,1.60018 -8.81679,1.09235 l 0,0 c -0.0294,-0.0104 -0.0608,-0.0204 -0.0872,-0.0318 -0.0539,-0.0215 -0.10591,-0.0438 -0.15591,-0.0668 0,0 0,0 0,0 0,0 0,0 0,0 -0.0558,-0.0254 -0.10917,-0.0517 -0.16,-0.079 0,0 0,0 0,0 -0.0285,-0.0156 -0.0607,-0.03 -0.0876,-0.0462 -0.035,-0.02 -0.0694,-0.0402 -0.0981,-0.0622 -0.0636,-0.0432 -0.12218,-0.0883 -0.17563,-0.13511 l 0,0 c -0.0755,-0.0668 -0.14098,-0.13715 -0.1961,-0.21116 l 0,0 c 0,0 0,0 0,0 -0.11089,-0.25542 -0.15912,-0.3243 -0.17262,-0.3393 -0.004,-0.005 -0.004,-0.005 -0.004,-0.005 0,0 -6.6e-4,1.7e-4 4.4e-4,-0.006 0.003,-0.0199 0.007,-0.10389 -0.0355,-0.37903 0,0 0,0 0,0 l 0,0 c 0.007,-0.092 0.0247,-0.18649 0.0528,-0.28329 l 0,0 c 0.0195,-0.068 0.0439,-0.13709 0.0733,-0.20725 0.0118,-0.0337 0.0293,-0.069 0.0432,-0.10321 0.0176,-0.0294 0.0363,-0.059 0.0511,-0.0875 0,0 0,0 0,0 0.0257,-0.0501 0.0535,-0.10061 0.0835,-0.15159 0,0 0,0 0,0 0,0 0,0 0,0 0.0274,-0.0461 0.0566,-0.0926 0.0876,-0.13938 0.0145,-0.0236 0.0341,-0.0487 0.0495,-0.0726 l 0.002,-6.3e-4 c 0.91501,-1.32604 3.36295,-2.8729 5.47497,-5.053095 l 0,0 c 0.6757,-0.802268 1.27763,-1.489915 1.10989,-1.839649 l 0,10e-7 0,-10e-7 0,0 c -0.17361,0.112903 -0.28512,0.186217 -0.26581,0.550514 l 0,0 c -0.0178,-0.112215 -0.54707,-0.348252 -1.25326,-0.908883 -0.70912,-0.453599 -1.55184,-0.813077 -2.49477,-1.092643 -0.56356,-0.167088 -1.14955,-0.30157 -1.73838,-0.40841 -1.18297,-0.115728 -2.06851,-0.227593 -2.58068,-0.02539 -0.15006,0.0074 -0.39341,0.01222 -0.44977,-0.04843 -0.44274,0.209034 -0.54574,1.290271 -0.65975,2.434525 0,0 0,10e-7 0,10e-7 -0.19055,4.295271 1.17622,7.371271 -0.47182,8.309101 z"
       id="path24024"
       inkscape:path-effect="#path-effect24026;#path-effect24028"
       inkscape:original-d="M 114.41803,106.62787 C 97.426265,77.093314 150.9758,96.530566 117.33934,106.14098" />
  </g>
</svg>
