<?xml version="1.0" encoding="UTF-8" standalone="no"?>
<!-- Created with Inkscape (http://www.inkscape.org/) -->

<svg
   width="369.21866"
   height="410.68192"
   viewBox="0 0 369.21866 410.68192"
   version="1.1"
   id="svg5"
   inkscape:version="1.1.1 (3bf5ae0d25, 2021-09-20)"
   sodipodi:docname="drawing.svg"
   xmlns:inkscape="http://www.inkscape.org/namespaces/inkscape"
   xmlns:sodipodi="http://sodipodi.sourceforge.net/DTD/sodipodi-0.dtd"
   xmlns="http://www.w3.org/2000/svg"
   xmlns:svg="http://www.w3.org/2000/svg">
  <sodipodi:namedview
     id="namedview7"
     pagecolor="#ffffff"
     bordercolor="#666666"
     borderopacity="1.0"
     inkscape:pageshadow="2"
     inkscape:pageopacity="0.0"
     inkscape:pagecheckerboard="0"
     inkscape:document-units="px"
     showgrid="false"
     inkscape:zoom="0.25041051"
     inkscape:cx="205.6623"
     inkscape:cy="-43.927869"
     inkscape:window-width="1284"
     inkscape:window-height="860"
     inkscape:window-x="324"
     inkscape:window-y="63"
     inkscape:window-maximized="0"
     inkscape:current-layer="layer1" />
  <defs
     id="defs2">
    <clipPath
       clipPathUnits="userSpaceOnUse"
       id="clipPath840">
      <path
         d="M 0,353.097 H 961.266 V 0 H 0 Z"
         id="path838" />
    </clipPath>
  </defs>
  <g
     inkscape:label="Layer 1"
     inkscape:groupmode="layer"
     id="layer1"
     transform="translate(-354.50542,-1260.2525)">
    <g
       id="g834"
       transform="matrix(1.3333333,0,0,-1.3333333,288.66935,1707.9657)">
      <g
         id="g836"
         clip-path="url(#clipPath840)">
        <g
           id="g842"
           transform="translate(137.8323,47.8506)">
          <path
             d="m 0,0 c 1.328,-0.629 2.155,-1.006 2.969,-1.408 5.987,-2.955 11.977,-5.91 18.644,-7.056 15.306,-2.631 28.034,1.968 38.116,13.762 5.128,6 7.936,13.202 10.171,20.633 2.279,7.579 4.815,15.055 8.09,22.268 4.476,9.857 10.637,18.484 18.68,25.764 5.305,4.801 10.573,9.643 15.778,14.55 1.516,1.43 2.868,3.07 4.102,4.755 2.374,3.241 5.333,5.623 9.047,7.205 5.389,2.295 10.867,4.128 16.792,4.222 0.839,0.014 1.734,0.01 2.512,-0.255 1.694,-0.578 2.968,-2.456 2.117,-4.581 -2.724,-6.81 -7.45,-11.62 -13.955,-14.858 -2.551,-1.269 -5.14,-2.558 -7.439,-4.215 -3.075,-2.217 -5.43,-5.094 -5.876,-9.097 -0.064,-0.567 -0.1,-1.144 -0.069,-1.712 0.148,-2.712 1.144,-3.729 3.821,-3.21 2.976,0.577 5.95,1.379 8.774,2.472 5.327,2.062 10.562,4.366 15.801,6.649 1.566,0.683 3.066,1.553 4.509,2.473 2.886,1.842 4.998,4.327 6.304,7.552 2.516,6.209 4.08,12.684 5.677,19.161 1.823,7.396 3.679,14.785 5.681,22.134 1.16,4.257 3.058,8.188 5.926,11.637 2.886,3.47 6.582,4.603 11.015,4.359 1.652,-4.205 1.564,-8.46 0.483,-12.656 -1.329,-5.16 -2.991,-10.233 -4.442,-15.362 C 179.207,100.967 176.021,86.56 173.655,71.975 172.68,65.968 169.304,61.41 164.729,57.77 159.883,53.913 154.803,50.342 149.749,46.756 139.479,39.469 129.004,32.461 118.919,24.93 113.591,20.951 108.818,16.207 103.95,11.643 94.71,2.979 84.754,-4.642 73.272,-10.127 65.166,-13.999 56.86,-17.378 47.979,-18.954 37.872,-20.747 27.82,-20.726 18.231,-16.414 12.061,-13.639 6.779,-9.6 2.486,-4.334 1.827,-3.525 1.282,-2.619 0.727,-1.731 0.499,-1.366 0.384,-0.93 0,0"
             style="fill:#ffffff;fill-opacity:1;fill-rule:nonzero;stroke:none"
             id="path844" />
        </g>
        <g
           id="g846"
           transform="translate(184.0119,47.012)">
          <path
             d="m 0,0 c -3.623,-2.113 -7.255,-3.093 -11.044,-3.557 -9.803,-1.2 -18.823,1.185 -26.912,6.619 -4.653,3.126 -9.129,6.643 -13.178,10.513 -9.214,8.809 -19.252,16.518 -29.735,23.71 -8.733,5.992 -17.421,12.053 -26.057,18.185 -2.4,1.704 -4.664,3.644 -6.783,5.691 -4.169,4.028 -5.769,9.228 -6.715,14.821 -1.271,7.51 -2.657,15.021 -4.472,22.415 -2.451,9.986 -5.36,19.86 -8.064,29.784 -1.054,3.87 -2.147,7.743 -1.461,11.824 0.188,1.117 0.479,2.217 0.724,3.331 3.229,1.294 6.061,0.855 8.701,-1.185 2.54,-1.963 4.461,-4.415 5.918,-7.258 2.63,-5.137 4.021,-10.691 5.43,-16.232 1.949,-7.662 3.79,-15.352 5.766,-23.008 0.642,-2.486 1.598,-4.889 2.343,-7.35 1.476,-4.875 4.721,-8.198 9.136,-10.484 1.691,-0.876 3.421,-1.694 5.185,-2.41 5.74,-2.326 11.488,-4.636 17.271,-6.853 1.495,-0.573 3.114,-0.981 4.705,-1.107 2.443,-0.192 3.48,0.886 3.658,3.328 0.175,2.389 -0.558,4.524 -1.895,6.458 -2.049,2.964 -4.727,5.221 -7.93,6.859 -2.038,1.043 -4.129,1.991 -6.113,3.126 -5.127,2.932 -8.888,7.152 -11.307,12.525 -0.407,0.904 -0.677,2.058 -0.5,3 0.441,2.345 1.864,3.192 4.312,3.017 7.249,-0.519 14.05,-2.592 20.405,-6.058 1.556,-0.849 3.206,-1.945 4.183,-3.361 3.964,-5.743 9.384,-10.001 14.385,-14.692 3.271,-3.069 6.557,-6.122 9.794,-9.226 8.357,-8.011 14.158,-17.704 18.285,-28.413 2.293,-5.952 4.199,-12.053 6.297,-18.081 0.907,-2.607 1.855,-5.2 2.791,-7.797 C -10.934,12.741 -7.833,8.113 -3.723,4.125 -2.45,2.89 -1.336,1.49 0,0"
             style="fill:#ffffff;fill-opacity:1;fill-rule:nonzero;stroke:none"
             id="path848" />
        </g>
        <g
           id="g850"
           transform="translate(100.3814,219.5335)">
          <path
             d="m 0,0 c 7.475,-3.757 15.046,-7.335 22.404,-11.308 16.452,-8.884 31.542,-19.723 45.152,-32.551 15.806,-14.899 29.24,-31.63 39.147,-51.087 3.158,-6.201 4.692,-12.712 4.522,-19.564 -0.19,-7.629 -2.231,-14.862 -5.786,-21.64 -2.27,-4.328 -5.006,-8.34 -8.253,-11.994 -0.738,-0.83 -1.562,-1.584 -2.583,-2.611 -1.107,10.216 -3.413,19.715 -6.349,29.061 -6.195,19.717 -15.541,37.895 -27.096,54.97 C 48.585,-48.145 33.972,-31.319 17.361,-16.249 12.348,-11.701 7.099,-7.412 1.971,-2.99 1.117,-2.253 0.33,-1.439 -0.488,-0.661 -0.325,-0.441 -0.163,-0.22 0,0"
             style="fill:#ffffff;fill-opacity:1;fill-rule:nonzero;stroke:none"
             id="path852" />
        </g>
        <g
           id="g854"
           transform="translate(234.3331,334.3117)">
          <path
             d="m 0,0 c 0.7,-3.774 1.57,-7.203 1.93,-10.684 0.597,-5.78 1.254,-11.596 1.203,-17.392 -0.152,-17.206 -5.285,-32.822 -15.86,-46.52 -2.037,-2.64 -4.169,-5.209 -6.306,-7.771 -0.757,-0.907 -1.658,-1.695 -2.74,-2.392 5.65,15.809 11.708,31.432 13.045,48.651 -1.435,-0.619 -1.453,-1.75 -1.776,-2.622 -2.482,-6.705 -4.811,-13.469 -7.412,-20.128 -2.774,-7.104 -5.658,-14.178 -9.582,-20.755 -1.156,-1.938 -2.255,-3.946 -4.151,-5.67 -0.355,0.509 -0.676,0.84 -0.848,1.236 -3.518,8.094 -5.987,16.439 -6.668,25.31 -1.234,16.052 4.244,29.559 15.171,41.063 6.631,6.981 14.447,12.426 22.761,17.194 C -0.989,-0.339 -0.704,-0.27 0,0"
             style="fill:#00b8ff;fill-opacity:1;fill-rule:nonzero;stroke:none"
             id="path856" />
        </g>
        <g
           id="g858"
           transform="translate(143.6488,335.7849)">
          <path
             d="m 0,0 c 0.609,-0.366 1.118,-0.599 1.543,-0.938 11.201,-8.93 21.129,-18.988 27.958,-31.762 3.806,-7.121 6.264,-14.713 7.689,-22.644 1.17,-6.505 1.379,-13.075 1.123,-19.663 -0.047,-1.221 -0.276,-2.436 -0.814,-3.712 -0.632,1.805 -1.27,3.608 -1.894,5.415 -3.866,11.186 -8.044,22.238 -14.064,32.488 -1.158,1.972 -2.425,3.881 -3.692,5.785 -0.382,0.575 -0.935,1.036 -1.602,1.437 5.734,-17.031 13.004,-33.573 14.756,-52.02 -0.621,0.131 -0.974,0.134 -1.258,0.275 -10.732,5.302 -20.349,12.003 -27.439,21.877 -5.54,7.713 -8.448,16.349 -9.177,25.784 -0.968,12.526 1.833,24.412 5.992,36.077 C -0.698,-1.091 -0.356,-0.638 0,0"
             style="fill:#00b8ff;fill-opacity:1;fill-rule:nonzero;stroke:none"
             id="path860" />
        </g>
        <g
           id="g862"
           transform="translate(231.2931,223.7109)">
          <path
             d="m 0,0 c 14.537,8.443 29.33,16.473 41.143,28.72 -0.106,0.181 -0.213,0.363 -0.32,0.544 -1.221,-0.654 -2.471,-1.26 -3.659,-1.97 C 27.668,21.623 18.09,16.084 8.049,11.435 3.658,9.402 -1.014,7.973 -5.573,6.31 -6.163,6.095 -6.842,6.127 -7.899,5.99 c 0.406,1.423 0.705,2.575 1.062,3.709 3.518,11.168 8.733,21.35 17.389,29.474 7.746,7.268 17,11.521 27.437,13.097 4.414,0.667 8.924,1.197 13.366,1.054 5.979,-0.192 11.937,-1.085 17.9,-1.707 0.546,-0.057 1.068,-0.331 1.596,-0.502 C 68.962,44.508 56.89,26.35 45.067,16.989 31.849,6.524 16.675,1.395 0,0"
             style="fill:#00b8ff;fill-opacity:1;fill-rule:nonzero;stroke:none"
             id="path864" />
        </g>
        <g
           id="g866"
           transform="translate(152.1908,232.8152)">
          <path
             d="m 0,0 c -3.463,-0.701 -6.232,-1.381 -9.04,-1.806 -7.669,-1.159 -15.352,-1.52 -23.056,-0.181 -8.639,1.502 -16.391,4.909 -23.201,10.457 -6.527,5.318 -11.592,11.828 -15.722,19.111 -3.019,5.325 -5.422,10.932 -7.568,16.655 -0.161,0.428 -0.219,0.893 -0.36,1.49 0.564,0.157 0.99,0.358 1.427,0.383 13.652,0.782 27.022,-0.667 39.951,-5.28 9.009,-3.214 16.944,-8.239 24.132,-14.53 4.332,-3.791 8.188,-7.994 11.676,-12.552 0.804,-1.052 1.547,-2.15 2.035,-3.645 -0.693,0.351 -1.414,0.656 -2.075,1.06 -7.987,4.872 -16.085,9.549 -24.588,13.465 -5.716,2.633 -11.514,5.096 -17.712,6.42 -0.358,0.076 -0.729,0.09 -1.297,-0.247 0.981,-0.595 1.944,-1.221 2.945,-1.781 C -31.964,23.14 -21.51,17.195 -11.735,10.165 -8.492,7.832 -5.497,5.15 -2.423,2.586 -1.715,1.996 -1.148,1.237 0,0"
             style="fill:#00b8ff;fill-opacity:1;fill-rule:nonzero;stroke:none"
             id="path868" />
        </g>
        <g
           id="g870"
           transform="translate(205.2794,137.4645)">
          <path
             d="m 0,0 c -0.499,0.609 -0.882,1.016 -1.197,1.471 -3.468,5.017 -6.892,10.065 -10.399,15.055 -1.82,2.59 -1.958,2.915 0.213,5.393 5.968,6.815 12.269,13.303 19.034,19.345 8.484,7.577 17.536,14.39 27.071,20.573 9.372,6.077 19.078,11.546 29.271,16.135 1.87,0.842 3.701,1.771 5.723,2.431 C 41.821,57.769 18.279,31.436 0,0"
             style="fill:#00b8ff;fill-opacity:1;fill-rule:nonzero;stroke:none"
             id="path872" />
        </g>
        <g
           id="g874"
           transform="translate(187.5924,174.5639)">
          <path
             d="m 0,0 c -8.509,0.015 -15.108,6.653 -14.982,15.071 0.123,8.265 6.791,14.812 15.067,14.795 C 8.481,29.848 15.115,23.119 15.052,14.699 14.988,6.103 7.535,-0.513 0,0"
             style="fill:#ffffff;fill-opacity:1;fill-rule:nonzero;stroke:none"
             id="path876" />
        </g>
        <g
           id="g878"
           transform="translate(170.7958,125.3913)">
          <path
             d="m 0,0 c 0.368,-0.514 0.724,-0.92 0.978,-1.382 4.92,-8.951 9.397,-18.106 12.724,-27.787 0.062,-0.181 0.132,-0.359 0.204,-0.535 1.163,-2.84 1.161,-5.566 0.039,-8.533 -2.166,-5.732 -2.954,-11.791 -3.327,-18.467 -6.566,7 -10.627,14.802 -12.894,23.55 C -5.373,-21.203 -3.593,-7.328 0,0"
             style="fill:#00b8ff;fill-opacity:1;fill-rule:nonzero;stroke:none"
             id="path880" />
        </g>
      </g>
    </g>
  </g>
</svg>
